<svg width="3691" height="3675" viewBox="0 0 3691 3675" fill="none" xmlns="http://www.w3.org/2000/svg">
<path d="M2311.5 1295H1939.5C1997.96 1346.63 2006.16 1377.65 2020 1436.5V2244C1995.15 2314.29 1978.18 2343.9 1939.5 2383H2667C2655.45 2268.92 2674.37 2204.22 2700 2088.5C2645.31 2164.3 2602.68 2191.29 2500.5 2205.5H2239.5V1436.5C2261.21 1358.23 2272.26 1326.06 2311.5 1295Z" fill="black"/>
<path d="M663.842 1527C598.646 1791.1 618.509 2078.69 735.241 2330.7C866.635 2614.35 1101.73 2838.73 1392.01 2957.96C1682.31 3077.2 2006.3 3082.43 2297.36 2971.91C2588.49 2861.36 2824.33 2643.43 2955.92 2362.81C3087.5 2082.2 3104.53 1760.89 3004.17 1465.19C2903.83 1169.56 2693.79 921.895 2417.55 772.79C2141.3 623.682 1819.29 584.178 1517.65 662.969L1512.36 664.352L1507.25 666.278C1255.56 761.035 1091.6 841.01 921.246 1039.25L888.514 1037.77C1048.41 848.677 1264.52 711.807 1509.44 647.831C1815.2 567.962 2142.62 607.816 2424.09 759.743C2705.57 911.674 2919.07 1163.8 3020.89 1463.81C3122.69 1763.74 3105.12 2088.56 2972.43 2371.53C2839.76 2654.47 2601.81 2874.66 2307.18 2986.54C2012.47 3098.45 1683.34 3093.49 1387.63 2972.03C1091.9 2850.57 852.721 2622.05 719.241 2333.89C599.798 2076.03 570.989 1788.42 638.135 1519.49L663.842 1527Z" stroke="black" stroke-width="209"/>
<path d="M1140.5 2246.5V1552.5H1356.5V1738H1509C1632 1738 1632 1454.5 1509 1454.5H547L594 1304L1572 1307C1864.52 1279.56 1948.14 1783.29 1632 1806C2024.31 1820.61 1928.48 2390.81 1572 2386.5H1062L1140.5 2246.5Z" fill="black"/>
<path d="M1140.5 2246.5V1552.5H1356.5V1738H1509C1632 1738 1632 1454.5 1509 1454.5H547L594 1304L1572 1307C1864.52 1279.56 1948.14 1783.29 1632 1806C2024.31 1820.61 1928.48 2390.81 1572 2386.5H1062L1140.5 2246.5Z" stroke="black"/>
<path d="M1140.5 2246.5V1552.5H1356.5V1738H1509C1632 1738 1632 1454.5 1509 1454.5H547L594 1304L1572 1307C1864.52 1279.56 1948.14 1783.29 1632 1806C2024.31 1820.61 1928.48 2390.81 1572 2386.5H1062L1140.5 2246.5Z" stroke="black" stroke-opacity="0.2"/>
<path d="M1565.76 1896.56H1363.67V2228.56H1565.76C1689.18 2228.55 1684.74 1896.55 1565.76 1896.56Z" fill="white" stroke="black"/>
</svg>
